<svg height="16" viewBox="0 0 16 16" width="16" fill="white" xmlns="http://www.w3.org/2000/svg"><path d="m6.75595 7.02272 1.07268-.98393c.6009-.55118.80702-1.41196.52096-2.17552l-.45837-1.22354c-.35512-.9479-1.38637-1.45597-2.35434-1.15993-1.7162.52487-3.0352 2.11964-2.62912 4.01424.26704 1.24594.7776 2.80984 1.74602 4.47459.97007 1.66757 2.07791 2.90037 3.02758 3.76497 1.43443 1.3059 3.48464.9793 4.80364-.2504.7338-.6842.8087-1.8211.1711-2.5957l-.8406-1.02106c-.5182-.62952-1.3667-.8814-2.14451-.6366l-1.38845.43701c-.0534-.05488-.11526-.1205-.18272-.19573-.22813-.25435-.51349-.61084-.75348-1.02651-.23999-.41568-.40604-.84105-.51225-1.16579-.03141-.09604-.05731-.18242-.07814-.2561z"/></svg>